<?xml version="1.0" encoding="utf-8"?>
<!-- Generator: Adobe Illustrator 23.0.1, SVG Export Plug-In . SVG Version: 6.00 Build 0)  -->
<svg version="1.1" id="Layer_1" xmlns="http://www.w3.org/2000/svg" xmlns:xlink="http://www.w3.org/1999/xlink" x="0px" y="0px"
	 viewBox="0 0 1000 1000" style="enable-background:new 0 0 1000 1000;" xml:space="preserve">
<style type="text/css">
	.st0{fill-rule:evenodd;clip-rule:evenodd;fill:#1D93D1;}
</style>
<path class="st0" d="M500,26.7C457.8,130,432.4,197.6,385.5,297.8c28.8,30.5,64.1,66,121.3,106.1c-61.6-25.4-103.5-50.8-135.1-77.2
	c-60,125.2-154.1,303.7-344.9,646.6c150.1-86.6,266.3-140,374.8-160.4c-4.7-20-7.3-41.7-7.1-64.3l0.2-4.8
	c2.4-96.1,52.4-170,111.6-165c59.2,5,105.3,87,102.9,183.2c-0.4,17.4-2.4,34.6-6,51.6c107.2,21,222.3,74.2,370.2,159.7L893.1,825
	c-39.2-30.4-80-69.9-163.4-112.7c57.3,14.9,98.3,32.1,130.1,51.3C607,292.8,586.5,230.2,499.8,26.7L500,26.7z"/>
</svg>
