<?xml version="1.0" encoding="utf-8"?>
<!-- Generator: Adobe Illustrator 26.2.1, SVG Export Plug-In . SVG Version: 6.00 Build 0)  -->
<svg version="1.1"
	 id="svg18" inkscape:version="0.92.3 (2405546, 2018-03-11)" sodipodi:docname="Gmail_2020.svg" xmlns:cc="http://creativecommons.org/ns#" xmlns:dc="http://purl.org/dc/elements/1.1/" xmlns:inkscape="http://www.inkscape.org/namespaces/inkscape" xmlns:rdf="http://www.w3.org/1999/02/22-rdf-syntax-ns#" xmlns:sodipodi="http://sodipodi.sourceforge.net/DTD/sodipodi-0.dtd" xmlns:svg="http://www.w3.org/2000/svg"
	 xmlns="http://www.w3.org/2000/svg" xmlns:xlink="http://www.w3.org/1999/xlink" x="0px" y="0px" viewBox="0 0 543 499.5"
	 style="enable-background:new 0 0 543 499.5;" xml:space="preserve">
<style type="text/css">
	.st0{fill:#4285F4;}
	.st1{fill:#34A853;}
	.st2{fill:#FBBC04;}
	.st3{fill-rule:evenodd;clip-rule:evenodd;fill:#EA4335;}
	.st4{fill:#C5221F;}
	.st5{fill:#FFFFFF;stroke:#000000;stroke-miterlimit:10;}
</style>
<sodipodi:namedview  bordercolor="#666666" borderopacity="1" gridtolerance="10" guidetolerance="10" id="namedview20" inkscape:current-layer="svg18" inkscape:cx="191.30881" inkscape:cy="-74.667856" inkscape:pageopacity="0" inkscape:pageshadow="2" inkscape:window-height="705" inkscape:window-maximized="1" inkscape:window-width="1366" inkscape:window-x="-8" inkscape:window-y="-8" inkscape:zoom="2.3071895" objecttolerance="10" pagecolor="#ffffff" showgrid="false">
	</sodipodi:namedview>
<desc  id="desc4">Created with Sketch.</desc>
<g id="g18" transform="matrix(18.510943,0,0,18.510943,0,-0.11106566)">
	<path id="path8" inkscape:connector-curvature="0" class="st0" d="M2,22h4.7V10.7L0,5.7V20C0,21.1,0.9,22,2,22z"/>
	<path id="path10" inkscape:connector-curvature="0" class="st1" d="M22.7,22h4.7c1.1,0,2-0.9,2-2V5.7l-6.7,5V22z"/>
	<path id="path12" inkscape:connector-curvature="0" class="st2" d="M22.7,2v8.7l6.7-5V3c0-1.7-1.3-3-3-3c-0.6,0-1.3,0.2-1.8,0.6
		L22.7,2z"/>
	<path id="path14" inkscape:connector-curvature="0" class="st3" d="M6.7,10.7V2l8,6l8-6v8.7l-8,6L6.7,10.7z"/>
	<path id="path16" inkscape:connector-curvature="0" class="st4" d="M0,3v2.7l6.7,5V2L4.8,0.6c-1.3-1-3.2-0.7-4.2,0.6
		C0.2,1.7,0,2.4,0,3z"/>
</g>
<path class="st5" d="M585,630"/>
</svg>
