<?xml version="1.0" encoding="utf-8"?>
<!-- Generator: Adobe Illustrator 24.2.0, SVG Export Plug-In . SVG Version: 6.00 Build 0)  -->
<svg version="1.1" id="Layer_1" xmlns="http://www.w3.org/2000/svg" xmlns:xlink="http://www.w3.org/1999/xlink" x="0px" y="0px"
	 viewBox="0 0 1000 1000" style="enable-background:new 0 0 1000 1000;" xml:space="preserve">
<style type="text/css">
	.st0{fill:#2CAAE1;}
</style>
<g>
	<path class="st0" d="M850.9,282.4c-25.8,11.5-53.6,19.2-82.7,22.7c29.7-17.8,52.6-46,63.3-79.7c-27.8,16.5-58.6,28.5-91.4,34.9
		c-26.3-28-63.7-45.5-105.1-45.5c-79.5,0-144,64.5-144,144c0,11.3,1.3,22.3,3.7,32.8c-119.7-6-225.8-63.3-296.8-150.4
		c-12.4,21.3-19.5,46-19.5,72.4c0,50,25.4,94,64.1,119.8c-23.6-0.7-45.8-7.2-65.2-18c0,0.6,0,1.2,0,1.8
		c0,69.8,49.6,127.9,115.5,141.2c-12.1,3.3-24.8,5.1-37.9,5.1c-9.3,0-18.3-0.9-27.1-2.6c18.3,57.2,71.5,98.8,134.5,100
		c-49.3,38.6-111.4,61.6-178.8,61.6c-11.6,0-23.1-0.7-34.3-2c63.7,40.9,139.4,64.7,220.7,64.7c264.8,0,409.6-219.4,409.6-409.7
		c0-6.2-0.1-12.5-0.4-18.6C807.2,336.6,831.6,311.2,850.9,282.4z"/>
</g>
</svg>
