<svg id="Capa_1" data-name="Capa 1" xmlns="http://www.w3.org/2000/svg" width="2005.58" height="1324.07" viewBox="0 0 2005.58 1324.07">
  <g>
    <g>
      <rect x="591.83" width="389.6" height="389.6" style="fill: #0078d4"/>
      <rect x="1024.16" width="389.6" height="389.6" style="fill: #0078d4"/>
      <rect x="591.83" y="432.38" width="389.6" height="389.6" style="fill: #0078d4"/>
      <rect x="1024.16" y="432.38" width="389.6" height="389.6" style="fill: #0078d4"/>
    </g>
    <g>
      <path d="M1012.93-1875.43h-60l-58.51-222.73-59.16,222.73H773.92l-80.45-289.5H747.9l58,230.23,63.29-230.23h55l59.52,231.64,55.11-231.64h52.56Z" transform="translate(-693.47 3193.03)" style="fill: #0078d4"/>
      <path d="M1168.35-2143.76a25.38,25.38,0,0,1-8.65,19.54,29.26,29.26,0,0,1-20.61,7.81,29.22,29.22,0,0,1-20.59-7.81,25.64,25.64,0,0,1-8.44-19.54,26.43,26.43,0,0,1,8.44-20,29.24,29.24,0,0,1,20.59-8,28.18,28.18,0,0,1,20.84,8.24,26.64,26.64,0,0,1,8.46,19.77Zm-54.29,268.31v-208.63h48.63v208.63Z" transform="translate(-693.47 3193.03)" style="fill: #0078d4"/>
      <path d="M1349.89-1875.43v-116.16c0-30.44-9.44-56.7-40.1-56.7S1260-2020.82,1260-1993v117.59h-47.58v-208.62H1260v29.54h.82c15.79-24.43,38.58-33,68.38-33,22.38,0,39.68,5.51,51.9,19.79s17.79,36,17.79,65.12v127.27Z" transform="translate(-693.47 3193.03)" style="fill: #0078d4"/>
      <path d="M1588.79-1875.43v-26.86H1588c-15.1,25.4-45.94,31.26-67.43,31.26-63.82,0-87.26-49.63-87.26-102.44q0-52.52,26.16-84c17.57-21.15,41.06-30.29,70.43-30.29,45.74,0,58.17,25.45,58.17,25.45h.82v-120.74h49.35v307.65Zm.42-118.9c0-25.19-16.2-53.83-50.38-53.83-39.07,0-54.3,34-54.3,73.25,0,34.25,14.33,65.33,51.58,65.83,36.47,0,52.8-34.8,53.1-63.56Z" transform="translate(-693.47 3193.03)" style="fill: #0078d4"/>
      <path d="M1887.11-1980.68c0,72.27-43.19,111.42-108,111.42-70.53,0-106.68-42.23-106.68-106.88,0-74,43.32-112.45,111.83-112.45C1847-2088.59,1887.11-2048.47,1887.11-1980.68Zm-50.67,1.66c0-32.16-11.4-67.9-54.91-67.9-41.68,0-58,31.06-58,69.12,0,41.36,19.54,67.67,57.65,67.67,40.91,0,54.91-31.39,55.21-68.89Z" transform="translate(-693.47 3193.03)" style="fill: #0078d4"/>
      <path d="M2148.15-1875.43h-53.67l-41-151-44,151h-52.1l-60.7-208h50.93l39.63,161.59,46.33-161.59h47.78l41.3,161.17,38.67-161.17H2208Z" transform="translate(-693.47 3193.03)" style="fill: #0078d4"/>
      <path d="M2360.71-1933.51c0,46.45-42.11,64.55-84.34,64.55-27.49,0-54.88-10.59-54.88-10.59v-49.4s23.81,20.73,57.05,21c22.79,0,33.07-7.19,33.07-20.84.56-11-6.13-17-14.12-21.58a205.58,205.58,0,0,0-25.74-12.15q-20.61-8.85-30.69-17.09a53,53,0,0,1-14.83-19.36,63.21,63.21,0,0,1-5.49-25.45c0-37.51,31.26-64,81.28-64,33,0,47.37,8.1,47.37,8.1v46.89s-23.44-16.23-47.89-16.37c-17.48,0-30.7,6.37-30.94,20.77-.13,18.56,22.62,27.62,36.2,33.11,19.77,8,34.23,16.47,42.33,26.22s11.62,19.54,11.62,36.19Z" transform="translate(-693.47 3193.03)" style="fill: #0078d4"/>
      <path d="M2552-2173.37v297.94h-49.76v-237.71s-17.07,15.76-60.86,27.18v-42.41c65.13-24.08,88.46-45.05,88.46-45.05Z" transform="translate(-693.47 3193.03)" style="fill: #0078d4"/>
      <path d="M2699.05-2173.37v297.94h-49.77v-237.71s-17.06,15.76-60.85,27.18v-42.41c65.12-24.08,88.45-45.05,88.45-45.05Z" transform="translate(-693.47 3193.03)" style="fill: #0078d4"/>
    </g>
  </g>
</svg>