<svg id="Capa_1" data-name="Capa 1" xmlns="http://www.w3.org/2000/svg" width="2026.92" height="1316.44" viewBox="0 0 2026.92 1316.44">
  <g>
    <path id="path4" d="M1158.34-1660.37l357.55-49.14V-1364H1158.34m400.6-352.35,473.7-69.2v418.61h-473.7m-400.6,39.47h357.55v346.58L1158.34-1031m400.6-291.86h473.7v414.62l-473.7-67" transform="translate(-582.03 1785.55)" style="fill: #0078d6"/>
    <g>
      <path d="M969.24-772.38,885-474.17h-41L782.71-692.06a135.79,135.79,0,0,1-4.79-30.37h-.83a154.56,154.56,0,0,1-5.34,29.95L710-474.13H669.43L582-772.38H620.5l63.42,228.75a150.42,150.42,0,0,1,5,30h1q1-11,6.45-30l65.88-228.75H795.7L858.92-542a168.75,168.75,0,0,1,5,27.86h.84q.82-10.81,5.62-28.7l61-229.58Z" transform="translate(-582.03 1785.55)" style="fill: #0078d6"/>
      <path d="M1006.42-741.14a21.54,21.54,0,0,1-15.6-6.23,21,21,0,0,1-6.45-15.81,21.39,21.39,0,0,1,6.5-15.88,21.36,21.36,0,0,1,15.6-6.34,22.09,22.09,0,0,1,15.91,6.34,21.3,21.3,0,0,1,6.55,15.91,21.12,21.12,0,0,1-6.55,15.6A21.83,21.83,0,0,1,1006.42-741.14Zm16.62,267h-34.1V-687.06H1023Z" transform="translate(-582.03 1785.55)" style="fill: #0078d6"/>
      <path d="M1248.87-474.12h-34.11V-595.56q0-67.79-49.46-67.79A53.67,53.67,0,0,0,1123-644.11q-16.74,19.22-16.73,48.55v121.44h-34.11V-687.06h34.11v35.35h.82Q1131.15-692,1177-692q34.93,0,53.47,22.56t18.51,65.2Z" transform="translate(-582.03 1785.55)" style="fill: #0078d6"/>
      <path d="M1474.78-474.12h-34.1V-510.3h-.84q-23.7,41.18-73.19,41.18-40.11,0-64.17-28.6t-24.06-77.87q0-52.85,26.63-84.65T1376-692q43.86,0,63.83,34.51h.84V-789.38h34.14Zm-34.1-96.24v-31.4q0-25.77-17.06-43.68t-43.26-17.87q-31.17,0-49.07,22.87t-17.83,63.23q0,36.81,17.15,58.12t46.06,21.33q28.5,0,46.28-20.59t17.78-52Z" transform="translate(-582.03 1785.55)" style="fill: #0078d6"/>
      <path d="M1612.87-469.12q-47.23,0-75.4-29.85t-28.17-79.12q0-53.65,29.32-83.82T1617.85-692q47.64,0,74.36,29.32t26.73,81.31q0,51-28.81,81.62T1612.87-469.12Zm2.48-194.23q-32.83,0-52,22.35t-19.08,61.67q0,37.83,19.34,59.67t51.78,21.84q33.08,0,50.79-21.39T1684-580.14q0-39.93-17.78-61.49t-50.85-21.72Z" transform="translate(-582.03 1785.55)" style="fill: #0078d6"/>
      <path d="M2021.65-687.06l-63.84,212.94h-35.36l-43.87-152.39a98.7,98.7,0,0,1-3.33-19.76h-.78a92.37,92.37,0,0,1-4.37,19.35l-47.61,152.84h-34.12L1723.91-687h35.78l44.11,160.13a97.31,97.31,0,0,1,2.9,19.13h1.67a89.11,89.11,0,0,1,3.74-19.55l49-159.75h31.2l44.11,160.54a115.77,115.77,0,0,1,3.11,19.13h1.68a88.23,88.23,0,0,1,3.52-19.13L1988-687.06Z" transform="translate(-582.03 1785.55)" style="fill: #0078d6"/>
      <path d="M2028.2-481.8v-36.59q27.87,20.56,61.35,20.59,44.91,0,44.91-29.95a26.11,26.11,0,0,0-3.83-14.46,38.63,38.63,0,0,0-10.4-10.5,81.53,81.53,0,0,0-15.39-8.22q-8.84-3.62-19-7.59A247,247,0,0,1,2061-579.84a75.34,75.34,0,0,1-17.88-12.9,48.11,48.11,0,0,1-10.82-16.32,57.84,57.84,0,0,1-3.63-21.39,51,51,0,0,1,6.85-26.52,61.07,61.07,0,0,1,18.3-19.35,85.64,85.64,0,0,1,26.11-11.75,116.19,116.19,0,0,1,30.25-4q27.64,0,49.46,9.56V-648q-23.49-15.4-54.07-15.39a63.3,63.3,0,0,0-17.26,2.18,42.2,42.2,0,0,0-13.2,6.14,28.14,28.14,0,0,0-8.53,9.46,25,25,0,0,0-3,12.17,29.23,29.23,0,0,0,3,13.93,30.75,30.75,0,0,0,8.83,10,67.21,67.21,0,0,0,14.15,7.9q8.31,3.52,18.93,7.7a263.74,263.74,0,0,1,25.39,11.12A87.15,87.15,0,0,1,2153-569.91a50.41,50.41,0,0,1,12.17,16.54,53.44,53.44,0,0,1,4.26,22.25q0,15.81-7,27.45a59.84,59.84,0,0,1-18.62,19.34A85.07,85.07,0,0,1,2117-472.89a132.82,132.82,0,0,1-31.83,3.75Q2052.39-469.12,2028.2-481.8Z" transform="translate(-582.03 1785.55)" style="fill: #0078d6"/>
      <path d="M2379.6-474.73h-34.11V-732.39a80.15,80.15,0,0,1-11.54,9,190.92,190.92,0,0,1-17.06,10.08q-9.46,5-20,9.35a143.15,143.15,0,0,1-20.48,6.86v-34.52a198.48,198.48,0,0,0,23.81-8.42q12.59-5.34,24.75-11.85t23-13.72a181.71,181.71,0,0,0,18.72-14.05h12.9Z" transform="translate(-582.03 1785.55)" style="fill: #0078d6"/>
      <path d="M2609-631.33q0,37.43-6.77,66.34t-19.54,48.77q-12.79,19.85-31.4,30.15t-42.32,10.3q-22.46,0-40.1-9.88a84,84,0,0,1-29.63-28.81q-12-18.91-18.3-46.48T2414.65-624q0-39.11,6.55-69t19.24-50.23q12.66-20.26,31.5-30.57t43.15-10.29Q2608.94-784.18,2609-631.33ZM2574-628q0-127.26-60.52-127.26-63.84,0-63.84,129.55,0,120.83,62.6,120.83Q2574-504.89,2574-628Z" transform="translate(-582.03 1785.55)" style="fill: #0078d6"/>
    </g>
  </g>
</svg>